<svg xmlns="http://www.w3.org/2000/svg" width="200.34" height="35" viewBox="0 0 200.34 35"><rect class="svg__rect" x="0" y="0" width="83.76" height="35" fill="#727576"/><rect class="svg__rect" x="81.76" y="0" width="118.58" height="35" fill="#444546"/><path class="svg__text" d="M13.97 18.13L13.97 18.13L13.97 17.46Q13.97 15.53 14.90 14.44Q15.82 13.35 17.48 13.35L17.48 13.35Q18.90 13.35 19.74 14.05Q20.58 14.76 20.75 16.08L20.75 16.08L19.30 16.08Q19.05 14.54 17.51 14.54L17.51 14.54Q16.51 14.54 16.00 15.26Q15.48 15.98 15.46 17.37L15.46 17.37L15.46 18.02Q15.46 19.40 16.04 20.17Q16.63 20.93 17.66 20.93L17.66 20.93Q18.80 20.93 19.28 20.42L19.28 20.42L19.28 18.75L17.52 18.75L17.52 17.62L20.76 17.62L20.76 20.89Q20.29 21.50 19.47 21.81Q18.65 22.12 17.61 22.12L17.61 22.12Q16.54 22.12 15.71 21.63Q14.89 21.14 14.44 20.24Q13.99 19.33 13.97 18.13ZM26.94 22L25.46 22L25.46 13.47L26.94 13.47L26.94 22ZM33.43 14.66L30.79 14.66L30.79 13.47L37.56 13.47L37.56 14.66L34.90 14.66L34.90 22L33.43 22L33.43 14.66ZM42.80 22L41.32 22L41.32 13.47L42.80 13.47L42.80 17.02L46.61 17.02L46.61 13.47L48.09 13.47L48.09 22L46.61 22L46.61 18.21L42.80 18.21L42.80 22ZM52.70 19.16L52.70 19.16L52.70 13.47L54.17 13.47L54.17 19.18Q54.17 20.03 54.61 20.48Q55.04 20.93 55.88 20.93L55.88 20.93Q57.59 20.93 57.59 19.13L57.59 19.13L57.59 13.47L59.07 13.47L59.07 19.17Q59.07 20.53 58.20 21.32Q57.33 22.12 55.88 22.12L55.88 22.12Q54.42 22.12 53.56 21.33Q52.70 20.55 52.70 19.16ZM66.75 22L63.64 22L63.64 13.47L66.56 13.47Q68.01 13.47 68.77 14.05Q69.52 14.63 69.52 15.78L69.52 15.78Q69.52 16.36 69.21 16.83Q68.89 17.30 68.28 17.56L68.28 17.56Q68.97 17.75 69.35 18.26Q69.73 18.78 69.73 19.51L69.73 19.51Q69.73 20.71 68.96 21.36Q68.19 22 66.75 22L66.75 22ZM65.12 18.15L65.12 20.82L66.77 20.82Q67.47 20.82 67.86 20.47Q68.25 20.13 68.25 19.51L68.25 19.51Q68.25 18.18 66.89 18.15L66.89 18.15L65.12 18.15ZM65.12 14.66L65.12 17.06L66.58 17.06Q67.27 17.06 67.66 16.75Q68.05 16.43 68.05 15.86L68.05 15.86Q68.05 15.23 67.69 14.95Q67.33 14.66 66.56 14.66L66.56 14.66L65.12 14.66Z" fill="#FFFFFF"/><path class="svg__text" d="M95.52 17.80L95.52 17.80Q95.52 16.54 96.12 15.54Q96.72 14.55 97.77 13.99Q98.82 13.43 100.14 13.43L100.14 13.43Q101.29 13.43 102.21 13.84Q103.14 14.25 103.75 15.02L103.75 15.02L102.24 16.39Q101.43 15.40 100.26 15.40L100.26 15.40Q99.57 15.40 99.04 15.70Q98.51 16 98.21 16.54Q97.92 17.09 97.92 17.80L97.92 17.80Q97.92 18.51 98.21 19.05Q98.51 19.60 99.04 19.90Q99.57 20.20 100.26 20.20L100.26 20.20Q101.43 20.20 102.24 19.22L102.24 19.22L103.75 20.58Q103.14 21.35 102.22 21.76Q101.29 22.17 100.14 22.17L100.14 22.17Q98.82 22.17 97.77 21.61Q96.72 21.05 96.12 20.05Q95.52 19.06 95.52 17.80ZM107.86 17.80L107.86 17.80Q107.86 16.55 108.46 15.55Q109.07 14.56 110.13 14.00Q111.19 13.43 112.52 13.43L112.52 13.43Q113.85 13.43 114.92 14.00Q115.98 14.56 116.59 15.55Q117.19 16.55 117.19 17.80L117.19 17.80Q117.19 19.05 116.59 20.04Q115.98 21.04 114.92 21.60Q113.86 22.17 112.52 22.17L112.52 22.17Q111.19 22.17 110.13 21.60Q109.07 21.04 108.46 20.04Q107.86 19.05 107.86 17.80ZM110.26 17.80L110.26 17.80Q110.26 18.51 110.56 19.05Q110.86 19.60 111.38 19.90Q111.89 20.20 112.52 20.20L112.52 20.20Q113.16 20.20 113.68 19.90Q114.19 19.60 114.49 19.05Q114.79 18.51 114.79 17.80L114.79 17.80Q114.79 17.09 114.49 16.54Q114.19 16 113.68 15.70Q113.16 15.40 112.52 15.40L112.52 15.40Q111.89 15.40 111.37 15.70Q110.86 16 110.56 16.54Q110.26 17.09 110.26 17.80ZM124.30 22L121.92 22L121.92 13.60L125.77 13.60Q126.91 13.60 127.75 13.98Q128.58 14.35 129.04 15.06Q129.50 15.76 129.50 16.71L129.50 16.71Q129.50 17.62 129.07 18.30Q128.64 18.98 127.85 19.36L127.85 19.36L129.66 22L127.12 22L125.60 19.77L124.30 19.77L124.30 22ZM124.30 15.47L124.30 17.93L125.62 17.93Q126.35 17.93 126.72 17.61Q127.10 17.29 127.10 16.71L127.10 16.71Q127.10 16.12 126.72 15.79Q126.35 15.47 125.62 15.47L125.62 15.47L124.30 15.47ZM136.48 22L134.29 22L134.29 13.60L136.24 13.60L139.20 18.45L142.08 13.60L144.03 13.60L144.05 22L141.87 22L141.85 17.55L139.69 21.17L138.63 21.17L136.48 17.67L136.48 22ZM150.63 22L148.21 22L151.92 13.60L154.26 13.60L157.98 22L155.51 22L154.85 20.37L151.30 20.37L150.63 22ZM153.07 15.93L151.99 18.61L154.15 18.61L153.07 15.93ZM161.70 17.80L161.70 17.80Q161.70 16.54 162.30 15.54Q162.90 14.55 163.95 13.99Q165.00 13.43 166.32 13.43L166.32 13.43Q167.47 13.43 168.40 13.84Q169.32 14.25 169.93 15.02L169.93 15.02L168.42 16.39Q167.61 15.40 166.44 15.40L166.44 15.40Q165.76 15.40 165.22 15.70Q164.69 16 164.39 16.54Q164.10 17.09 164.10 17.80L164.10 17.80Q164.10 18.51 164.39 19.05Q164.69 19.60 165.22 19.90Q165.76 20.20 166.44 20.20L166.44 20.20Q167.61 20.20 168.42 19.22L168.42 19.22L169.93 20.58Q169.32 21.35 168.40 21.76Q167.47 22.17 166.32 22.17L166.32 22.17Q165.00 22.17 163.95 21.61Q162.90 21.05 162.30 20.05Q161.70 19.06 161.70 17.80ZM173.88 21.24L173.88 21.24L174.66 19.49Q175.23 19.86 175.97 20.09Q176.71 20.32 177.43 20.32L177.43 20.32Q178.80 20.32 178.81 19.64L178.81 19.64Q178.81 19.28 178.42 19.11Q178.03 18.93 177.16 18.74L177.16 18.74Q176.21 18.53 175.57 18.30Q174.94 18.06 174.48 17.55Q174.03 17.03 174.03 16.16L174.03 16.16Q174.03 15.39 174.45 14.77Q174.87 14.15 175.70 13.79Q176.54 13.43 177.74 13.43L177.74 13.43Q178.57 13.43 179.38 13.62Q180.18 13.80 180.80 14.17L180.80 14.17L180.07 15.93Q178.86 15.28 177.73 15.28L177.73 15.28Q177.02 15.28 176.70 15.49Q176.38 15.70 176.38 16.04L176.38 16.04Q176.38 16.37 176.76 16.54Q177.15 16.71 178.00 16.89L178.00 16.89Q178.96 17.10 179.59 17.33Q180.22 17.56 180.68 18.07Q181.14 18.58 181.14 19.46L181.14 19.46Q181.14 20.21 180.72 20.83Q180.31 21.44 179.46 21.80Q178.62 22.17 177.42 22.17L177.42 22.17Q176.40 22.17 175.44 21.92Q174.48 21.67 173.88 21.24ZM188.10 22L185.72 22L185.72 13.60L188.10 13.60L188.10 22Z" fill="#FFFFFF" x="94.76"/></svg>