<svg xmlns="http://www.w3.org/2000/svg" width="218.93" height="35" viewBox="0 0 218.93 35"><rect class="svg__rect" x="0" y="0" width="108.92" height="35" fill="#31C4F3"/><rect class="svg__rect" x="106.92" y="0" width="112.01000000000002" height="35" fill="#389AD5"/><path class="svg__text" d="M16.25 14.66L13.61 14.66L13.61 13.47L20.38 13.47L20.38 14.66L17.72 14.66L17.72 22L16.25 22L16.25 14.66ZM29.72 22L24.14 22L24.14 13.47L29.67 13.47L29.67 14.66L25.62 14.66L25.62 17.02L29.12 17.02L29.12 18.19L25.62 18.19L25.62 20.82L29.72 20.82L29.72 22ZM39.27 22L33.91 22L33.91 13.47L35.39 13.47L35.39 20.82L39.27 20.82L39.27 22ZM48.97 22L43.39 22L43.39 13.47L48.93 13.47L48.93 14.66L44.87 14.66L44.87 17.02L48.38 17.02L48.38 18.19L44.87 18.19L44.87 20.82L48.97 20.82L48.97 22ZM52.92 18.13L52.92 18.13L52.92 17.46Q52.92 15.53 53.84 14.44Q54.77 13.35 56.43 13.35L56.43 13.35Q57.85 13.35 58.69 14.05Q59.53 14.76 59.70 16.08L59.70 16.08L58.24 16.08Q58.00 14.54 56.46 14.54L56.46 14.54Q55.46 14.54 54.94 15.26Q54.42 15.98 54.41 17.37L54.41 17.37L54.41 18.02Q54.41 19.40 54.99 20.17Q55.57 20.93 56.61 20.93L56.61 20.93Q57.75 20.93 58.23 20.42L58.23 20.42L58.23 18.75L56.47 18.75L56.47 17.62L59.70 17.62L59.70 20.89Q59.24 21.50 58.42 21.81Q57.60 22.12 56.56 22.12L56.56 22.12Q55.48 22.12 54.66 21.63Q53.83 21.14 53.38 20.24Q52.94 19.33 52.92 18.13ZM65.80 22L64.32 22L64.32 13.47L67.32 13.47Q68.80 13.47 69.60 14.13Q70.40 14.79 70.40 16.05L70.40 16.05Q70.40 16.90 69.99 17.48Q69.58 18.06 68.84 18.37L68.84 18.37L70.75 21.92L70.75 22L69.17 22L67.46 18.71L65.80 18.71L65.80 22ZM65.80 14.66L65.80 17.52L67.33 17.52Q68.08 17.52 68.50 17.15Q68.92 16.77 68.92 16.11L68.92 16.11Q68.92 15.43 68.53 15.05Q68.14 14.68 67.37 14.66L67.37 14.66L65.80 14.66ZM75.58 22L74.04 22L77.26 13.47L78.59 13.47L81.82 22L80.27 22L79.57 20.01L76.27 20.01L75.58 22ZM77.92 15.28L76.68 18.82L79.16 18.82L77.92 15.28ZM87.25 22L85.77 22L85.77 13.47L87.69 13.47L90.15 20.01L92.61 13.47L94.53 13.47L94.53 22L93.05 22L93.05 19.19L93.20 15.43L90.68 22L89.62 22L87.10 15.43L87.25 19.19L87.25 22Z" fill="#FFFFFF"/><path class="svg__text" d="M122.53 22L120.10 22L123.81 13.60L126.15 13.60L129.87 22L127.40 22L126.74 20.37L123.19 20.37L122.53 22ZM124.96 15.93L123.88 18.61L126.04 18.61L124.96 15.93ZM136.22 22L134.02 22L134.02 13.60L135.98 13.60L138.93 18.45L141.81 13.60L143.77 13.60L143.79 22L141.61 22L141.59 17.55L139.42 21.17L138.37 21.17L136.22 17.67L136.22 22ZM151.33 22L148.95 22L148.95 13.60L152.80 13.60Q153.93 13.60 154.77 13.98Q155.61 14.35 156.07 15.06Q156.53 15.76 156.53 16.71L156.53 16.71Q156.53 17.66 156.07 18.35Q155.61 19.05 154.77 19.42Q153.93 19.80 152.80 19.80L152.80 19.80L151.33 19.80L151.33 22ZM151.33 15.47L151.33 17.93L152.65 17.93Q153.38 17.93 153.75 17.61Q154.13 17.29 154.13 16.71L154.13 16.71Q154.13 16.12 153.75 15.80Q153.38 15.47 152.65 15.47L152.65 15.47L151.33 15.47ZM160.85 17.80L160.85 17.80Q160.85 16.55 161.46 15.55Q162.06 14.56 163.12 14.00Q164.19 13.43 165.52 13.43L165.52 13.43Q166.85 13.43 167.91 14.00Q168.97 14.56 169.58 15.55Q170.19 16.55 170.19 17.80L170.19 17.80Q170.19 19.05 169.58 20.04Q168.97 21.04 167.91 21.60Q166.85 22.17 165.52 22.17L165.52 22.17Q164.19 22.17 163.12 21.60Q162.06 21.04 161.46 20.04Q160.85 19.05 160.85 17.80ZM163.25 17.80L163.25 17.80Q163.25 18.51 163.55 19.05Q163.85 19.60 164.37 19.90Q164.88 20.20 165.52 20.20L165.52 20.20Q166.15 20.20 166.67 19.90Q167.19 19.60 167.48 19.05Q167.78 18.51 167.78 17.80L167.78 17.80Q167.78 17.09 167.48 16.54Q167.19 16 166.67 15.70Q166.15 15.40 165.52 15.40L165.52 15.40Q164.88 15.40 164.36 15.70Q163.85 16 163.55 16.54Q163.25 17.09 163.25 17.80ZM181.30 22L174.91 22L174.91 13.60L177.29 13.60L177.29 20.11L181.30 20.11L181.30 22ZM192.83 22L185.30 22L185.30 20.51L189.54 15.48L185.41 15.48L185.41 13.60L192.65 13.60L192.65 15.09L188.41 20.11L192.83 20.11L192.83 22ZM198.77 22L196.34 22L200.05 13.60L202.40 13.60L206.11 22L203.64 22L202.98 20.37L199.43 20.37L198.77 22ZM201.21 15.93L200.12 18.61L202.28 18.61L201.21 15.93Z" fill="#FFFFFF" x="119.92"/></svg>